<?xml version="1.0" encoding="UTF-8"?>
<svg id="katman_1" xmlns="http://www.w3.org/2000/svg" version="1.1" viewBox="0 0 200 200">
  <!-- Generator: Adobe Illustrator 29.1.0, SVG Export Plug-In . SVG Version: 2.1.0 Build 142)  -->
  <defs>
    <style>
      .st0 {
        fill: #f4f4f5;
      }
    </style>
  </defs>
  <path class="st0" d="M150.2,49.6c-.5,0-.9.5-1.3.8-9.9,7.4-19.6,15.2-29.4,22.7-2,1.6-4.1,3.1-6.2,4.6-2.2-1.2-4.5-2.1-6.8-2.9l-5.8-24.8-.4-.4-6,25.2c-2.7.9-5.4,1.9-7.8,3.5-.5.3-2.1,1.7-2.4,1.7s-.4,0-.6-.2c-2.3-1.5-4.7-3.4-7-4.8,0,0-1.1-.8-1.1-.3l5.5,8.3c0,.5-1.4,2.1-1.8,2.6-1.5,2.4-2.6,5-3.3,7.7l-25.2,6v.5l25.1,5.8c.5,1.1.7,2.2,1.1,3.3.5,1.2,1.2,2.3,1.7,3.5l-28,37,37-28.1c1,.5,2,1.2,3.1,1.6.7.3,3.4,1,3.6,1.4l5.8,24.7.4.4,6-25.2c1.1-.6,2.4-.8,3.6-1.3,1.9-.8,3.6-1.8,5.2-2.9.4-.3,1-1,1.5-1l8.4,5.5-5.3-8.6v-.4c2.5-2.9,4.1-6.3,5.1-9.9l25.3-5.9-.3-.6-24.9-5.8c-.3-.2-1.1-3.1-1.3-3.7-.5-1.1-1.1-2.1-1.5-3.2,8.7-11.7,17.7-23.1,26.5-34.7.2-.3,1.7-2.1,1.5-2.3v.2h0ZM81.1,109.3c-.4.6-.8-.6-1-.9-8.1-17.9,10.9-37,28.8-29,.5.2,1,.4,1.2.9-.2,0-.3,0-.4.2-3.3,2.4-6.4,5.3-9.9,7.4-6.1,0-11.5,5.4-11.4,11.6l-7.4,9.9h.1ZM106.9,105c-3.1,3.7-9,4.2-12.4.7-6.2-6.3,0-16.7,8.4-14.2,5.6,1.7,7.7,8.9,4,13.4h0ZM92.8,120.3c-.3,0-2.5-1.1-2.4-1.3.9-.6,1.8-1.2,2.7-1.9,1.2-.9,6.7-5.5,7.6-5.6h1.2c5.9-1.1,10-5.7,10.2-11.8l7.3-9.7h.4c.3.2.8,1.6,1,2.1,6.4,17.5-10.6,34.6-28.1,28.3h.1Z"/>
  <path class="st0" d="M99.2,94.6c-1.4.2-2.8,1.5-3.4,2.7-2.3,4.5,2.8,9.3,7.1,6.6,4.9-3,2.1-10.3-3.7-9.4h0Z"/>
  <path class="st0" d="M100.4,1.9C46.6,1.9,2.9,45.7,2.9,99.4s43.7,97.5,97.5,97.5,97.5-43.7,97.5-97.5S154.1,1.9,100.4,1.9ZM176.8,121.8l4.6,1.4c-1.6,6-4.1,11.6-6.9,17.1-.4.3-3.6-2.2-4.3-2.3-.3,0-.5.5-.6.7-.2.3-1.2,2.1-1.1,2.2l4.2,2.4c-3.2,5.3-7,10.2-11.2,14.7l-3.6-3.3c-.2,0-2,1.7-2.1,2-.1.2-.2.2-.1.4.1.4,2.7,2.5,3.1,3.2,0,0,.2.2,0,.4-3.4,3.1-6.9,6.2-10.7,8.8-.5.3-3.5,2.3-3.8,2.4-.1,0-.2,0-.3-.1l-2.4-4.1c-.5.2-2.6,1.2-2.7,1.7,0,.6,2.5,3.9,2.2,4.4-3.9,2-7.8,3.8-11.9,5.3-.8.3-4.3,1.6-4.8,1.6s-.4-.3-.5-.6c-.3-.6-1-4-1.1-4.1l-3,.8c-.5.3,1,4,1,4.7s0,.2-.2.3l-5.8,1.3c-2.2.1-4.5.7-6.7.8-.6,0-1.4,0-1.7-.3l-5.4-10.9h-.5l-5.5,11.1c-.3.2-1.2,0-1.6,0-3.4,0-8.7-1-12.1-1.9-.2,0-.4-.1-.5-.3l1-4.9-2.6-.8c-.5,0-.6.3-.7.6-.3.7-.8,3.9-1.3,4-5.9-1.7-11.5-4.2-16.9-6.9v-.6c.4-1.1,1.6-2.5,2.1-3.6v-.4c-.2-.4-2.3-1.5-2.8-1.5-.4.3-1.8,3.3-2.2,3.9,0,0,0,.3-.3.2-3.9-2.5-7.8-5.2-11.3-8.3-.5-.4-3.2-2.9-3.2-3.2l3.3-3.3c0-.2-1.7-2-2-2.1-.2-.1-.2-.2-.4-.1-.4.1-2.5,2.7-3.2,3.1,0,0-.2.2-.4,0-4.1-4.5-8-9.3-11.1-14.6l4.2-2.4c0-.1-1.3-2.6-1.5-2.8-.1-.1-.2-.2-.4,0-1,.3-3.2,2.2-4,2.3-.3,0-.8-1.2-1-1.5-2.6-4.9-4.6-10.2-6.2-15.5l4.6-1.5-.6-2.9-.2-.3-4.8,1.1c-.5-2.1-1-4.2-1.4-6.4-.3-2.2-.8-5-.8-7.2v-.7l11.1-5.6v-.5c-.3,0-.5,0-.7-.2-2.8-1.3-5.7-2.8-8.4-4.2-.5-.3-2-.9-2.1-1.4.3-4.7,1-9.5,2.2-14.1l4.8,1.1c.1,0,.2,0,.2-.3,0-.3.7-2.6.6-2.8,0-.2-.2-.2-.3-.3l-4.4-1.2c1.6-5.9,4-11.7,7.1-17.1h.4c1,.5,2.7,2,3.7,2.2h.4c.2-.2,1.5-2.5,1.4-2.7l-4-2.4v-.6c.4-1.2,3.8-5.8,4.7-7.1,1.6-2.1,3.9-4.9,5.8-6.8s.5-.5.7-.4l3.4,3.2c.2,0,2.1-1.8,2.2-2,0-.2.2-.3,0-.5l-3.2-3.4c2.2-2,4.4-4.2,6.8-6,2-1.5,5-3.8,7.2-4.9.2,0,.5-.2.8-.3.6.7,1.9,3.8,2.4,4.2h.4c.4,0,2.5-1.3,2.5-1.9l-2.1-3.6v-.6c5.3-2.9,10.9-5.3,16.8-6.9.5,0,1.1,4,1.5,4.6.2.1.3,0,.5,0s2.4-.6,2.5-.7c.2-.1.2-.4,0-.6,0-.7-1.2-4.1-1-4.4,1.4-.4,2.9-.8,4.3-1,2.2-.4,4.7-.8,6.9-1,.6,0,2.7-.3,3.1,0l5.5,11.1h.6l5.5-11.1c.3-.2.8,0,1.2,0,1.5,0,3.2.3,4.7.5,1,0,8.1,1.3,8.4,1.7v1.1c0,.6-1.3,3.5-.7,3.8,0,0,2.2.6,2.5.7h.5c.4-.3.8-4.1,1.5-4.6,5.9,1.6,11.5,4,16.9,6.9v.6l-2.3,3.9c0,.2,2.4,1.6,2.6,1.6h.4c.5-.4,2.1-4.1,2.4-4.1,5.3,3.1,10.2,7,14.7,11.3l-3.3,3.6,2.3,2.3,3.4-3.2c.2,0,.4,0,.6.2,1.7,1.4,4.6,5.1,6,6.9,1.5,2,3.3,4.6,4.6,6.8.2.3.5.6.3.9-.4.6-4,2-4.1,2.5l1.5,2.7c.2,0,.8-.3,1-.4.7-.4,2.5-1.7,3-1.9h.3c3.1,5.3,5.4,11.1,7.1,17l-4.6,1.5c0,.2.4,2.5.6,2.9,0,0,0,.2.2.3l4.8-1.1c.5,2.2,1.1,4.3,1.4,6.5.3,2.1.8,5,.8,7.1v.7l-11.1,5.6v.5l11.1,5.5v2.9l-.9.2c0,1.5-.4,3.3-.6,4.9-.3,2.2-.9,4.4-1.4,6.5-.3.3-3.6-1-4.3-1.1h-.6c-.1,1-.7,2-.6,3h0Z"/>
</svg>