<?xml version="1.0" encoding="UTF-8"?>
<svg id="katman_1" xmlns="http://www.w3.org/2000/svg" version="1.1" viewBox="0 0 200 200">
  <!-- Generator: Adobe Illustrator 29.1.0, SVG Export Plug-In . SVG Version: 2.1.0 Build 142)  -->
  <defs>
    <style>
      .st0 {
        fill: #f4f4f5;
      }
    </style>
  </defs>
  <path class="st0" d="M187.2,64.8l-87.7,36.1L12.1,64.8v-20c.7-2.3,1.8-4.2,4.1-5.2,26.3-9.8,52.2-23.1,78.5-32.8,6.3-2.3,6.2-1.5,12.2.8,26.1,10.1,51.5,22,77.4,32.5,1.6,1,2.5,2.8,3,4.6v19.9h-.1ZM162.4,45.4l-63-25.7c-20.1,8.9-41.9,16.2-61.7,25.6-.5.2-1,0-.8.8l63,25.9,62-25.7.6-1Z"/>
  <path class="st0" d="M94.6,192.5l-78.5-32.6c-1.4-.2-4.1-3.8-4.1-4.7v-79.4l82.6,34.3v82.3h0Z"/>
  <path class="st0" d="M187.2,75.8v79.4c0,1.1-2.5,4.3-3.8,4.7l-36.7,14.9v-52.5c0-.5-2.1-1.4-2.8-.7-6.5,3.7-15.8,5.6-22,9.2-.7.4-1.3.9-1.7,1.6l-.5,53.8-15.2,6.1v-82.3l82.6-34.3h0Z"/>
</svg>