<?xml version="1.0" encoding="UTF-8"?>
<svg id="katman_1" xmlns="http://www.w3.org/2000/svg" version="1.1" viewBox="0 0 200 200">
  <!-- Generator: Adobe Illustrator 29.1.0, SVG Export Plug-In . SVG Version: 2.1.0 Build 142)  -->
  <defs>
    <style>
      .st0 {
        fill: #f4f4f5;
      }
    </style>
  </defs>
  <path class="st0" d="M138.6,19.6c-25.4.9-48.2,17-58.3,40.1-9.4,21.5-6.8,46.3,6.7,65.5,21,29.9,62.4,37.6,92.8,17.2.2,0,.2.3.2.5-1,2.5-5.6,8.3-7.5,10.7-25.2,31.3-69.3,41.9-106.2,25.4C17.2,157.1-2,96.5,26.4,50.3,51.5,9.4,105.4-5,147.2,19.5l-2.5-.2v12.8c6.6,2,7.8,11.7,2.1,15.5,2.3,1.8,5,3.9,5.3,6.9h-21.4c.9-2.7,2.5-5.5,5.3-6.4v-.5c-5.7-4.4-4.3-13.2,2.5-15.5v-12.5h0ZM139.5,38.3c-2.8,2.5,1.5,7.3,4.4,4.2,2.5-2.8-1.5-6.8-4.4-4.2Z"/>
  <polygon class="st0" points="132.9 118.2 126 118.2 112.7 75.5 128.1 75.5 132.9 118.2"/>
  <polygon class="st0" points="170.3 75.5 157.5 118.2 150.6 118.2 154.7 75.5 170.3 75.5"/>
  <polygon class="st0" points="148.6 75.5 144 118.1 139 118.2 134.4 75.5 148.6 75.5"/>
  <path class="st0" d="M120.9,133.2l4.2-9h32.5c1.2.2,3.7,6.9,4.7,8.3l-.4.7h-41.1,0Z"/>
  <path class="st0" d="M167.5,69.5h-13.4l-4.1-8.9h6.6c.7,0,9.4,8,10.8,8.9h0Z"/>
  <path class="st0" d="M132.9,60.6l-3.6,8.9h-13.5c1.4-1,10.2-8.9,10.8-8.9h6.2,0Z"/>
  <path class="st0" d="M135.8,69.5l3.7-8.6c.6-.5,3.8-.6,4.1-.1l3.9,8.7h-11.7Z"/>
  <path class="st0" d="M191.6,60.4c-2.5,2.8-7.1-1.1-4.4-4.2,2.6-2.9,7.1,1.2,4.4,4.2Z"/>
  <path class="st0" d="M93,91.3c4.3-1,5,5.4,1.2,5.9s-4.5-5.2-1.2-5.9Z"/>
</svg>