<?xml version="1.0" encoding="UTF-8"?>
<svg id="katman_1" xmlns="http://www.w3.org/2000/svg" version="1.1" viewBox="0 0 200 200">
  <!-- Generator: Adobe Illustrator 29.1.0, SVG Export Plug-In . SVG Version: 2.1.0 Build 142)  -->
  <defs>
    <style>
      .st0 {
        fill: #f4f4f4;
      }
    </style>
  </defs>
  <path class="st0" d="M21.2,147.6l42.1-.5V60.8H21.2v86.7ZM29.2,71.1c0-1.1.7-2,1.8-2.2h21.8c1.8,0,2.3.8,2.6,2.5-.5,6.5.6,13.9,0,20.3-.2,1.7-.7,3-2.6,3.2-6.6.8-14.9-.5-21.7-.2-1.4-.5-1.7-1-1.9-2.5-.6-6.7.5-14.4,0-21.2Z"/>
  <path class="st0" d="M21.2,177.1c.7.9,1.3,1.8,2.6,1.9,11.8-.8,25,1.1,36.6,0,1.4-.1,2.9-1.2,2.9-2.6v-13.1H21.2v13.8Z"/>
  <path class="st0" d="M59.8,42.4c-11.4-1-24.2.8-35.7,0-1.4,0-2.2.8-2.9,1.8v11.4h42.1v-10.3c0-.3-.6-1.9-.9-2.1-.5-.5-1.8-.7-2.6-.8Z"/>
  <path class="st0" d="M102.7,24.1c0-.9-1.2-2.3-2.2-2.6h-30.1c-.4.5-1.8,1-1.8,1.7v8.8h34.1v-7.8Z"/>
  <polygon class="st0" points="21.2 158 63.3 157.6 63.3 152.8 21.2 152.8 21.2 158"/>
  <path class="st0" d="M146.4,43.2c-.4-.3-1-.5-1.4-.7l-40.1,10.5-1.9,1.5-.2-4h-34.1v97.2h33.7l.5-.5V57.1l3.9,13.6,44.1-12.2c-1.1-2.7-2.7-13.8-4.3-15.4Z"/>
  <polygon class="st0" points="155 74.4 110.5 86.4 125.5 143.8 170.1 132.2 155 74.4"/>
  <path class="st0" d="M178.7,165.6l-3.1-12.5-44.6,11.7,3.4,12.7c.7,1.1,1.8,1.7,3.1,1.4l39.7-10.7c.9-.6,1.5-1.5,1.4-2.6Z"/>
  <path class="st0" d="M68.6,177.2c0,.8,1.8,1.6,2.6,1.7,8.9,1.1,19.8-.8,28.9,0,1.2.2,2.6-1.7,2.6-2.6v-13.1h-34.1v14Z"/>
  <path class="st0" d="M171.5,137.9l-.7-.5-43.3,11.5c-.4,0-.5.3-.5.7,0,.5,2.1,8.9,2.4,9.6.1.3.2.6.5.7l44.1-11.6-2.5-10.2Z"/>
  <polygon class="st0" points="102.7 44.7 102.7 37.6 102.2 37.2 68.6 37.2 68.6 45.2 102.2 45.2 102.7 44.7"/>
  <polygon class="st0" points="152.2 63.9 107.9 75.6 109.2 81.1 153.4 69.4 152.2 63.9"/>
  <polygon class="st0" points="68.6 158 102.2 158 102.7 157.6 102.7 152.8 68.6 152.8 68.6 158"/>
</svg>