<?xml version="1.0" encoding="UTF-8"?>
<svg id="katman_1" xmlns="http://www.w3.org/2000/svg" version="1.1" viewBox="0 0 1200 1200">
  <!-- Generator: Adobe Illustrator 29.1.0, SVG Export Plug-In . SVG Version: 2.1.0 Build 142)  -->
  <defs>
    <style>
      .st0 {
        fill: #f4f4f5;
      }
    </style>
  </defs>
  <path class="st0" d="M980.1,291.9l82.2,151.4-411,247.7-40-31.4s71.4-81.1,121.2-117.9c49.7-36.8,154.7-68.1,154.7-68.1,0,0,75.7-21.6,109.3-61.7l-68.2-137.4,51.9,17.3Z"/>
  <path class="st0" d="M272.7,274.6l-68.2,137.4c33.5,40,109.2,61.7,109.2,61.7,0,0,104.9,31.4,154.7,68.1,49.8,36.8,119.5,117.4,119.5,117.4l-38.4,31.9-411-247.7,82.2-151.4,51.9-17.3Z"/>
  <path class="st0" d="M211,1013.4l-14-22.7,38.9-81.1s207.7-107.1,194.7-159c0,0-14.1-34.6-43.3-17.3l-87.6,53,33.5-62.7,70.3-40,175.2,107.1-367.8,222.8Z"/>
  <path class="st0" d="M304.1,799.1l93-53c11.9-5.4,29.2,11.9,29.2,11.9l-107.1,66-15.1-24.9Z"/>
  <path class="st0" d="M591.8,783L45.6,443.3l86.6-174.1,36.8-22.7-89.8,187.1,513.8,311.5-1.1,37.9Z"/>
  <path class="st0" d="M486.6,521.4c-29.1-20.5-99.4-51.8-153.9-67.7-76.9-22.6-98.5-53.4-98.5-53.4l67.7-133.3c76.9,42,108.7,35.9,203.1,88.2,94.4,52.3,95.4,115.9,95.4,115.9,0,0,1-63.6,95.4-115.9,94.3-52.3,126.2-46.2,203.1-88.2l67.7,133.3s-21.6,30.8-98.5,53.4c-54.4,16-124.7,47.2-153.9,67.7-27.7,19.5-97.4,69.7-113.9,111.8-16.4-42.1-86.2-92.3-113.9-111.8h0Z"/>
  <path class="st0" d="M989.9,1013.4l-367.8-222.8,175.2-107.1,70.3,40,33.5,62.7-87.6-53c-29.2-17.3-43.3,17.3-43.3,17.3-13,51.9,194.7,159,194.7,159l39,81.1-14.1,22.7Z"/>
  <path class="st0" d="M896.8,799.1l-15.2,24.9-107.1-66s17.3-17.3,29.2-11.9l93,53Z"/>
  <path class="st0" d="M609.1,783l-1.1-37.9,513.8-311.5-89.8-187.1,36.8,22.7,86.6,174.1-546.3,339.7Z"/>
</svg>