<?xml version="1.0" encoding="UTF-8"?>
<svg id="katman_1" xmlns="http://www.w3.org/2000/svg" version="1.1" viewBox="0 0 200 200">
  <!-- Generator: Adobe Illustrator 29.1.0, SVG Export Plug-In . SVG Version: 2.1.0 Build 142)  -->
  <defs>
    <style>
      .st0 {
        fill: #f4f4f5;
      }
    </style>
  </defs>
  <path class="st0" d="M147.3,107.3c-2,.4-3.7,2.3-5.1,3.8-4.1,4.5-6.8,10.1-9.1,15.7l-8.1-1.9-6-11.7c0-1.2,1.5-1.5,2.2-2.5,2.1-2.8-.4-6.5-3.8-5.9s-5.6,3.3-6.2,3.9c-2,2.2-.7,4.1.3,6.3.7,1.6,5.1,9.5,5,10.3l-9.3,6.8c-3.8-5.5-8.4-10.5-12.1-16.1-3.7-5.6-4.2-7.7.4-11.9s9.5-6.2,13.6-9.7c2.6-2.9,0-7.2-3.7-6.1s-11.1,8.2-11.8,8.1l-10.3-16.9c-3-3.1-7.5,0-6.1,4l10.3,17.3c.2,1.5-1,2.6-1.5,4-2.6,7.2.5,11.9,4.4,17.5,3.6,5.3,7.9,10.1,11.6,15.3-.7,6.6-7,10.3-13.2,10.8-16,1.2-33.3-6-49-8.4l3.5-20.2,29.5,6.5c4.1,0,5.6-5.3,1.8-7.1-7-3.3-20-1.6-25.2-8.6-4.1-5.4-8.8-17.1-9.6-23.9-2.2-18.2,10-34.2,28.7-35,24.9-1.1,41,10.9,57.2,27.9,16.2,17,15.1,17.8,21.4,27.5Z"/>
  <path class="st0" d="M153.5,113.7l15,34.5c-2.8.3-5.7.9-8.5.7s-7.9-2.6-11.5-3.8-3.7-.7-5.3-1.3c-10.5-3.9-.6-21.8,4.1-27.1,1.8-2,3.2-3.6,6.2-2.9h0Z"/>
  <path class="st0" d="M32.6,138.4c-1.3,0-3.3-1.2-4.4-.4s-4.1,6.6-5.6,8.4c-1.3,1.4-2.1,2.3-4.1,2.3s-4.4-1.7-4.7-4.1c-.5-3.9-.5-16.3,0-20.2s5.9-9.1,10.6-8.9c1.2,0,11.2,2.3,11.6,2.8,0,0-3.4,20.2-3.4,20.2Z"/>
  <path class="st0" d="M161.3,112.9c20.2-5.6,31.9,20.6,14.5,32l-14.5-32Z"/>
  <path class="st0" d="M137.5,148.1c-.6.9-13,.9-14.8.7s-2.7-.9-4.2-2.5c-2.3-2.4-4.3-5.6-6.4-8.2l7.8-6.1c1.2,1.6,1.7,3.2,3.2,4.5,3.5,3.3,10.4,5.7,13.4,8.6.8.7,1.4,1.8,1,2.9h0Z"/>
</svg>