<?xml version="1.0" encoding="UTF-8"?>
<svg id="katman_1" xmlns="http://www.w3.org/2000/svg" version="1.1" viewBox="0 0 200 200">
  <!-- Generator: Adobe Illustrator 29.1.0, SVG Export Plug-In . SVG Version: 2.1.0 Build 142)  -->
  <defs>
    <style>
      .st0 {
        fill: #f4f4f5;
      }
    </style>
  </defs>
  <path class="st0" d="M37.6,188.5l-14.4-36.4c4.1-7.2,7.5-15.3,11.9-22.2,4.5-7,11.8-13.5,20.4-14.2,15.7-1.4,33.6.9,49.5,0,7.6,2,12.7,17.9,2,18.8-12.1,1.1-25.8-.9-38.2,0-3.6.5-3.5,7.2.4,7.4l40.5-.2c4.3-.9,7.8-3.9,9.2-8.1s.6-3.1,1.6-5.1c3.2-6.7,10.6-18.9,14.9-24.9,4.3-6,1.5-2.2,2.5-3,6.2-4.9,17.1-.7,12.5,7.8-9.3,17.1-22.8,34.1-33,50.9-3.1,2.7-6.5,5-10.6,6-13.7,3.4-36.2,2.3-47.8,8.8-7.3,4.1-14.2,10-21.5,14.1h0v.2Z"/>
  <path class="st0" d="M89.2,34.5c-.3-.3,1.9-3.1,2.2-3.5,6.1-8.1,9.9-12.1,20.5-13.8s18.1-1.6,27-3.3c8.9-1.6,6.6-2,7.6-1.9s2,1.5,2.6,2.2c7.9,8.5,18,22.2,25,31.7.9,1.3,2.7,3.1,2.5,4.8-.9,6.3-9.2,14.2-14.3,17.7-11,7.7-24.5,13.6-35.9,20.8-11.4,4.9-25.8-10-14.7-19.4l24.7-14.3c4.9-14.3-9.9-9-18.2-10.1-7.4-7.8-18.3-12.5-29.1-11h0Z"/>
  <path class="st0" d="M109.2,92.4c-20.6,13.4-47.2-1.1-45.3-26.2,1.4-18.8,20.3-30.3,37.9-24.5,17.6,5.8,14.9,9.2,17.1,16.8-3.8,3.1-9.9,4.8-13.2,8.5-5.6,6.2-4.9,15.9.4,22.1s3.4,2.9,3.1,3.4h0Z"/>
</svg>